<svg xmlns="http://www.w3.org/2000/svg" viewBox="0 0 98.81 90.1"><defs><style>.cls-1{fill:#f1e4b0;}.cls-2,.cls-3{fill:#3d3d3c;}.cls-2{fill-rule:evenodd;}</style></defs><title>Asset 14</title><g id="Layer_2" data-name="Layer 2"><g id="Layer_1-2" data-name="Layer 1"><path class="cls-1" d="M74,37A37,37,0,1,1,37,0,37,37,0,0,1,74,37h0"/><path class="cls-2" d="M53.76.65a44.4,44.4,0,1,0,44.4,44.4A44.45,44.45,0,0,0,53.76.65ZM23.15,73.39a41.72,41.72,0,0,1,59-58.95l.19.18L67.9,29l-.18-.15-.2-.19-.24-.21-.1-.08.26-4.67a1.32,1.32,0,0,0-.34-1,1.33,1.33,0,0,0-.92-.45,1.39,1.39,0,0,0-.82.22l-3.9,2.55-.11,0a21.66,21.66,0,0,0-4.16-1.11l-.13,0L55,19.73a1.33,1.33,0,0,0-1.2-.74h0a1.33,1.33,0,0,0-1.2.74l-2.11,4.18-.13,0A21,21,0,0,0,46.19,25l-.12.05-3.92-2.57a1.33,1.33,0,0,0-1.86.39,1.41,1.41,0,0,0-.22.81l.27,4.67-.1.08a20.66,20.66,0,0,0-3,3l-.08.1-4.67-.26a1.29,1.29,0,0,0-1,.34,1.34,1.34,0,0,0-.44.92,1.32,1.32,0,0,0,.22.82l2.55,3.89-.05.12a21,21,0,0,0-1.11,4.17l0,.12-4.16,2.1a1.33,1.33,0,0,0-.67.78,1.29,1.29,0,0,0,.07,1,1.34,1.34,0,0,0,.6.6l4.16,2.1,0,.12a21.81,21.81,0,0,0,1.11,4.18l.05.12-.08.1-2.48,3.78a1.36,1.36,0,0,0,.39,1.87,1.25,1.25,0,0,0,.82.21l4.63-.26.08.1a2.73,2.73,0,0,0,.23.25l.19.21.15.18L23.33,73.58ZM71,37.58a18.72,18.72,0,0,1,1.41,5.25,1.33,1.33,0,0,0,.73,1L75.46,45l-2.27,1.14a1.33,1.33,0,0,0-.73,1.05,18.91,18.91,0,0,1-1.4,5.28,1.34,1.34,0,0,0,.11,1.27l1.38,2.11L70,55.73a1.28,1.28,0,0,0-1.16.54A18.83,18.83,0,0,1,65,60.13a1.33,1.33,0,0,0-.53,1.16l.14,2.52-2.12-1.39a1.39,1.39,0,0,0-1.27-.11,18.69,18.69,0,0,1-5.28,1.42,1.31,1.31,0,0,0-1,.73l-1.14,2.26-1.14-2.25a1.31,1.31,0,0,0-1-.73,18.74,18.74,0,0,1-5.3-1.42,1.36,1.36,0,0,0-1.27.11l-2.1,1.38.14-2.53a1.33,1.33,0,0,0-.54-1.16c-.29-.22-.57-.45-.85-.68l-.21-.18L68,32.73l.18.21c.23.28.46.55.68.84a1.36,1.36,0,0,0,1.15.54l2.56-.15-1.41,2.14A1.37,1.37,0,0,0,71,37.58ZM36.47,52.47a19,19,0,0,1-1.39-5.26,1.37,1.37,0,0,0-.73-1L32.06,45l2.28-1.15a1.33,1.33,0,0,0,.73-1,18.79,18.79,0,0,1,1.41-5.26,1.37,1.37,0,0,0-.11-1.27L35,34.17l2.57.15a1.4,1.4,0,0,0,1.15-.54A19,19,0,0,1,42.52,30a1.32,1.32,0,0,0,.53-1.15l-.14-2.57,2.16,1.41a1.32,1.32,0,0,0,1.26.11,18.83,18.83,0,0,1,5.22-1.39,1.31,1.31,0,0,0,1-.73l1.17-2.31,1.15,2.3a1.39,1.39,0,0,0,1.05.73,19,19,0,0,1,5.24,1.39,1.34,1.34,0,0,0,1.27-.11l2.14-1.4-.15,2.57A1.36,1.36,0,0,0,65,30c.3.23.59.46.87.7l.21.18-.19.19L39.55,57.36l-.18-.2c-.24-.29-.48-.59-.71-.89a1.3,1.3,0,0,0-1.16-.54L35,55.87l1.4-2.13A1.34,1.34,0,0,0,36.47,52.47Zm17.29,34.3A41.6,41.6,0,0,1,25.42,75.66l-.19-.18L39.64,61.07l.18.16a1.57,1.57,0,0,1,.19.18l.23.2.1.08-.27,4.63a1.35,1.35,0,0,0,1.27,1.42,1.28,1.28,0,0,0,.81-.22L46,65l.12.05a21.88,21.88,0,0,0,4.22,1.12l.13,0,2.08,4.13a1.33,1.33,0,0,0,1.8.59,1.37,1.37,0,0,0,.6-.59L57,66.17l.13,0A21.69,21.69,0,0,0,61.37,65l.12,0,3.87,2.54a1.34,1.34,0,0,0,2.08-1.2l-.26-4.62.1-.08a22.34,22.34,0,0,0,3.07-3.08l.08-.1,4.63.26a1.35,1.35,0,0,0,1-.33,1.35,1.35,0,0,0,.23-1.75l-2.53-3.86,0-.12a21.59,21.59,0,0,0,1.12-4.21l0-.13,4.14-2.08a1.33,1.33,0,0,0,.67-.78,1.36,1.36,0,0,0-.08-1,1.4,1.4,0,0,0-.59-.59l-4.17-2.1,0-.13a21,21,0,0,0-1.11-4.15l0-.12,2.56-3.9a1.31,1.31,0,0,0,.19-1,1.32,1.32,0,0,0-.57-.85,1.42,1.42,0,0,0-.82-.21l-4.66.26-.08-.1-.19-.21-.18-.2-.15-.17,14.4-14.4.17.19A41.71,41.71,0,0,1,53.76,86.77Z"/><path class="cls-3" d="M53.76,90.1a45.05,45.05,0,1,1,45.05-45A45.1,45.1,0,0,1,53.76,90.1Zm0-88.8A43.75,43.75,0,1,0,97.51,45.05,43.8,43.8,0,0,0,53.76,1.3Zm0,86.12A42.23,42.23,0,0,1,25,76.14l-.69-.64L39.61,60.19l.63.54.22.21.19.16.35.29-.28,5a.7.7,0,0,0,.66.73A.64.64,0,0,0,41.8,67l4.14-2.72.43.17a20.47,20.47,0,0,0,4.08,1.09l.46.08L53.14,70a.68.68,0,0,0,.4.34.65.65,0,0,0,.53,0,.69.69,0,0,0,.31-.3l2.23-4.44.46-.07a21.07,21.07,0,0,0,4.07-1.09l.42-.16L65.72,67a.69.69,0,0,0,1-.2.68.68,0,0,0,.11-.42l-.28-5,.36-.29a20.41,20.41,0,0,0,3-3l.3-.35,5,.27a.61.61,0,0,0,.5-.17.67.67,0,0,0,.23-.48.68.68,0,0,0-.11-.42L73,52.84l.16-.44a20.88,20.88,0,0,0,1.09-4.07l.07-.46,4.43-2.23a.71.71,0,0,0,.35-.41.66.66,0,0,0,0-.53.69.69,0,0,0-.31-.3L74.3,42.15l-.08-.45a20.48,20.48,0,0,0-1.08-4L73,37.24l2.74-4.18a.69.69,0,0,0,.1-.52.66.66,0,0,0-.3-.44.72.72,0,0,0-.43-.12l-5,.29-.29-.36-.17-.18-.19-.21-.55-.64,15.3-15.3.64.69A42.37,42.37,0,0,1,53.76,87.42Zm-27.59-12a41.07,41.07,0,0,0,58-58L70.71,30.93,75,30.69a2,2,0,0,1,1.21.32,2,2,0,0,1,.58,2.76L74.43,37.4a22.3,22.3,0,0,1,1,3.89l3.87,2a2,2,0,0,1,.88.88,2,2,0,0,1-.88,2.68L75.5,48.73a22.33,22.33,0,0,1-1,4l2.36,3.59a2.06,2.06,0,0,1,.32,1.21,2,2,0,0,1-.66,1.37,2,2,0,0,1-1.45.5l-4.3-.24A22.31,22.31,0,0,1,67.85,62l.24,4.29A2,2,0,0,1,65,68.07l-3.6-2.36a22.12,22.12,0,0,1-3.93,1.05L55.54,70.6a2,2,0,0,1-3.56,0l-1.93-3.83a22.43,22.43,0,0,1-4-1l-3.58,2.34a2,2,0,0,1-1.22.33,2,2,0,0,1-1.87-2.1L39.67,62h0Zm-2.86-1-.63-.69A42.36,42.36,0,0,1,82.54,14l.69.63L67.93,29.9l-.63-.54-.21-.19-.22-.2-.36-.29.28-5a.69.69,0,0,0-.17-.5.7.7,0,0,0-.9-.12L61.54,25.8l-.43-.16a20.76,20.76,0,0,0-4-1.08l-.46-.07L54.38,20a.72.72,0,0,0-1.24,0L50.88,24.5l-.46.08a20.54,20.54,0,0,0-4,1.07l-.43.16L41.8,23.06a.7.7,0,0,0-1.08.62l.28,5-.35.29a21.5,21.5,0,0,0-2.94,2.94l-.29.36-5-.29a.63.63,0,0,0-.5.18.7.7,0,0,0-.12.9l2.73,4.17-.16.43a20.76,20.76,0,0,0-1.08,4l-.08.46L28.76,44.4a.69.69,0,0,0-.35.4.74.74,0,0,0,0,.53.77.77,0,0,0,.31.31l4.46,2.25.07.45a21.39,21.39,0,0,0,1.08,4l.16.43L31.8,57a.69.69,0,0,0,.2,1,.6.6,0,0,0,.4.11l5-.28.29.36a1.8,1.8,0,0,0,.19.21l.21.23.54.64ZM53.76,4A41.07,41.07,0,0,0,23.35,72.65l13.49-13.5,0,0-4.31.24A2,2,0,0,1,31.28,59a2,2,0,0,1-.57-2.76l2.37-3.62a22.17,22.17,0,0,1-1-3.9l-3.87-2a2,2,0,0,1-.88-.88,2,2,0,0,1,.89-2.68l3.86-2a22.65,22.65,0,0,1,1-3.9l-2.37-3.62a2,2,0,0,1,.34-2.58,2,2,0,0,1,1.45-.5l4.34.24a21,21,0,0,1,2.83-2.83l-.25-4.35a2,2,0,0,1,.33-1.2A2,2,0,0,1,42.51,22l3.64,2.39a21.55,21.55,0,0,1,3.86-1l2-3.89a2,2,0,0,1,3.56,0l2,3.87a22.54,22.54,0,0,1,3.89,1L65,22a2,2,0,0,1,2.59.34,2,2,0,0,1,.5,1.44l-.24,4.35,0,0L81.35,14.64A40.9,40.9,0,0,0,53.76,4Zm0,64.17L52,64.76a.65.65,0,0,0-.54-.37A19.68,19.68,0,0,1,46,62.92a.68.68,0,0,0-.65.06l-3.18,2.08.21-3.82a.71.71,0,0,0-.28-.6c-.3-.22-.59-.46-.88-.7l-.75-.63L68,31.77l.63.75c.25.29.48.57.71.87a.65.65,0,0,0,.59.28l3.85-.22-2.11,3.22a.7.7,0,0,0-.06.66h0a20,20,0,0,1,1.46,5.42.68.68,0,0,0,.37.54L76.9,45l-3.42,1.72a.71.71,0,0,0-.38.54,19.15,19.15,0,0,1-1.45,5.47.68.68,0,0,0,.06.65l2.09,3.19L70,56.38a.64.64,0,0,0-.6.27,19.39,19.39,0,0,1-4,4,.71.71,0,0,0-.28.6l.22,3.81L62.13,63a.68.68,0,0,0-.65-.06A19.71,19.71,0,0,1,56,64.37a.68.68,0,0,0-.54.38Zm-8-6.6a2.18,2.18,0,0,1,.79.16,17.83,17.83,0,0,0,5.11,1.37,2,2,0,0,1,1.55,1.09l.56,1.09.56-1.11a2,2,0,0,1,1.55-1.08A18.1,18.1,0,0,0,61,61.72a2,2,0,0,1,1.88.16l1,.68-.07-1.24a2,2,0,0,1,.79-1.71,18.07,18.07,0,0,0,3.73-3.73,2,2,0,0,1,1.72-.8l1.24.07-.68-1a2,2,0,0,1-.16-1.87,18,18,0,0,0,1.35-5.11,2,2,0,0,1,1.09-1.55L74,45l-1.13-.57a2,2,0,0,1-1.09-1.55,18.22,18.22,0,0,0-1.35-5.06h0A2,2,0,0,1,70.6,36l.7-1.07L70,35a1.94,1.94,0,0,1-1.7-.79l-.38-.48L42.42,59.22c.15.13.32.26.48.38a2,2,0,0,1,.8,1.72l-.07,1.24,1-.67A2,2,0,0,1,45.75,61.56Zm-6.24-3.24-.63-.74c-.26-.31-.51-.61-.74-.93a.68.68,0,0,0-.59-.27l-3.84.21,2.11-3.21a.68.68,0,0,0,.06-.65h0a19.38,19.38,0,0,1-1.45-5.44.7.7,0,0,0-.38-.54L30.62,45,34,43.29a.67.67,0,0,0,.38-.54,19.3,19.3,0,0,1,1.46-5.44.68.68,0,0,0-.06-.65l-2.11-3.21,3.87.22a.74.74,0,0,0,.59-.28,19.55,19.55,0,0,1,4-4,.68.68,0,0,0,.27-.59L42.19,25l3.23,2.12a.7.7,0,0,0,.66.06,19.37,19.37,0,0,1,5.39-1.44.68.68,0,0,0,.54-.38l1.75-3.46,1.73,3.44a.71.71,0,0,0,.54.38,19.64,19.64,0,0,1,5.43,1.44.66.66,0,0,0,.65-.05L65.33,25l-.22,3.86a.69.69,0,0,0,.28.59c.31.23.61.48.9.73l.76.63Zm-1.9-3.25a2,2,0,0,1,1.57.81c.13.18.27.35.41.52L65.12,30.87c-.17-.13-.33-.27-.51-.39a2,2,0,0,1-.8-1.72l.08-1.28-1.07.69a2,2,0,0,1-1.88.17A18.38,18.38,0,0,0,55.88,27a2,2,0,0,1-1.55-1.08l-.57-1.15-.59,1.16A2,2,0,0,1,51.63,27a18.23,18.23,0,0,0-5,1.34,2,2,0,0,1-1.88-.16l-1.08-.71.07,1.29a2,2,0,0,1-.8,1.71,18.17,18.17,0,0,0-3.69,3.69,1.94,1.94,0,0,1-1.7.79l-1.29-.07L36.91,36a2,2,0,0,1,.16,1.88,18.47,18.47,0,0,0-1.36,5.07,2,2,0,0,1-1.08,1.55L33.51,45l1.13.57a2,2,0,0,1,1.08,1.55,18.1,18.1,0,0,0,1.35,5.07h0a2,2,0,0,1-.16,1.88l-.7,1.06,1.26-.07Z"/></g></g></svg>