<svg xmlns="http://www.w3.org/2000/svg" viewBox="0 0 95.39 91.23"><defs><style>.cls-1{fill:#f1e4b0;}.cls-2{fill:#3d3d3c;}</style></defs><title>Asset 11</title><g id="Layer_2" data-name="Layer 2"><g id="Layer_1-2" data-name="Layer 1"><path class="cls-1" d="M74,37A37,37,0,1,1,37,0,37,37,0,0,1,74,37h0"/><path class="cls-2" d="M51.19,2.84A44.2,44.2,0,1,0,95.39,47,44.24,44.24,0,0,0,51.19,2.84ZM48.48,41.21l.43-.18a6.43,6.43,0,0,1,8.14,8.64.25.25,0,0,0,0,.07ZM45.33,44.4a.25.25,0,0,1,0-.07l8.52,8.53-.42.18a6.43,6.43,0,0,1-4.91-.15,6.31,6.31,0,0,1-3.37-3.58A6.38,6.38,0,0,1,45.33,44.4Zm-4-1.81a10.83,10.83,0,0,0,15.82,13.5l4.09,4.09A16.53,16.53,0,0,1,38,37l4.1,4.09A10.42,10.42,0,0,0,41.31,42.59ZM60.24,53a10,10,0,0,0,.83-1.5A10.83,10.83,0,0,0,47.34,36.91,11.14,11.14,0,0,0,45.25,38l-4.09-4.09A16.52,16.52,0,0,1,64.33,57.06ZM34.9,33.87l-.65.84L31.32,33a2.2,2.2,0,0,0-3,.8,2.2,2.2,0,0,0-.23,1.68,2.27,2.27,0,0,0,1,1.34L32,38.53a20.69,20.69,0,0,0-1.68,6.3H27a2.21,2.21,0,0,0,0,4.41h3.39A20.77,20.77,0,0,0,32,55.54l-2.93,1.69a2.24,2.24,0,0,0-1,1.34,2.21,2.21,0,0,0,.22,1.67,2.27,2.27,0,0,0,3,.81l2.93-1.69A21,21,0,0,0,38.86,64l-1.69,2.93A2.17,2.17,0,0,0,37,68.58a2.2,2.2,0,0,0,1,1.34,2.28,2.28,0,0,0,3-.81l1.69-2.93A20.77,20.77,0,0,0,49,67.86v3.39a2.21,2.21,0,1,0,4.41,0V67.86a20.75,20.75,0,0,0,6.31-1.68l1.69,2.93a2.27,2.27,0,0,0,3,.81,2.22,2.22,0,0,0,.81-3L63.51,64c.28-.21.57-.42.84-.65L77.7,76.66A39.76,39.76,0,0,1,21.56,20.52ZM67.47,60.2q.34-.42.66-.84l2.93,1.69a2.26,2.26,0,0,0,3-.8,2.21,2.21,0,0,0-.81-3l-2.93-1.69A20.78,20.78,0,0,0,72,49.24h3.39a2.21,2.21,0,0,0,0-4.41H72a20.7,20.7,0,0,0-1.69-6.3l2.94-1.7a2.21,2.21,0,0,0-.54-4,2.17,2.17,0,0,0-1.67.23l-2.93,1.69a20.87,20.87,0,0,0-4.62-4.62l1.7-2.93a2.2,2.2,0,0,0-2.48-3.23,2.17,2.17,0,0,0-1.34,1L59.7,27.89a20.47,20.47,0,0,0-6.31-1.68V22.82a2.21,2.21,0,1,0-4.41,0v3.39a20.48,20.48,0,0,0-6.3,1.68L41,25a2.2,2.2,0,0,0-4,.53,2.17,2.17,0,0,0,.22,1.67l1.69,2.94c-.28.2-.56.42-.84.65L24.68,17.4A39.76,39.76,0,0,1,80.82,73.55Z"/></g></g></svg>