<svg xmlns="http://www.w3.org/2000/svg" width="95.902" height="95.893" viewBox="0 0 95.902 95.893"><defs><style>.a{fill:#6da63a;}.b{fill:#fff;}</style></defs><g transform="translate(-82.745 -148.698)"><path class="a" d="M95.889,227.952v-1.283a1.07,1.07,0,0,0-.951-1.168c-.781-.149-1.568-.269-2.352-.406a1.133,1.133,0,0,1-1.078-1.462c.12-.758.256-1.513.39-2.268a1.137,1.137,0,0,0-.848-1.414c-.782-.255-1.568-.5-2.347-.765a1.069,1.069,0,0,1-.726-1.415c.238-.774.493-1.542.738-2.314a1.131,1.131,0,0,0-.652-1.542c-.691-.337-1.382-.672-2.071-1.011a1.13,1.13,0,0,1-.573-1.694c.316-.653.638-1.3.96-1.954.42-.847.316-1.256-.473-1.806-.6-.416-1.2-.822-1.792-1.239a1.134,1.134,0,0,1-.3-1.795q.646-.929,1.284-1.864a1.09,1.09,0,0,0-.164-1.626c-.579-.55-1.169-1.088-1.746-1.64a1.081,1.081,0,0,1-.073-1.689c.523-.584,1.066-1.151,1.6-1.727a1.112,1.112,0,0,0,.067-1.7c-.478-.6-.968-1.2-1.443-1.8a1.118,1.118,0,0,1,.195-1.749c.573-.47,1.159-.925,1.736-1.389a1.162,1.162,0,0,0,.337-1.776l-1.118-1.919a1.124,1.124,0,0,1,.456-1.726c.7-.414,1.4-.824,2.092-1.246a1.067,1.067,0,0,0,.472-1.4c-.293-.755-.6-1.506-.9-2.258a1.1,1.1,0,0,1,.666-1.617c.68-.289,1.369-.554,2.054-.831a1.2,1.2,0,0,0,.853-1.667c-.174-.718-.355-1.434-.527-2.152a1.121,1.121,0,0,1,.9-1.475c.8-.195,1.6-.381,2.4-.591a1,1,0,0,0,.855-1.147c-.045-.839-.125-1.676-.206-2.512a1.117,1.117,0,0,1,1.1-1.322c.852-.071,1.7-.158,2.551-.249a1.021,1.021,0,0,0,.924-.959c.061-.867.113-1.735.163-2.6a1.111,1.111,0,0,1,1.28-1.106c.8.054,1.593.1,2.391.128a1.083,1.083,0,0,0,1.264-.991q.247-1.1.459-2.212a1.146,1.146,0,0,1,1.513-1.061c.739.14,1.475.3,2.21.455a1.131,1.131,0,0,0,1.483-.784c.274-.731.522-1.472.795-2.2a1.109,1.109,0,0,1,1.58-.753c.724.251,1.443.518,2.163.781a1.147,1.147,0,0,0,1.6-.6c.381-.7.749-1.406,1.138-2.1a1.085,1.085,0,0,1,1.593-.463c.7.373,1.4.757,2.109,1.128a1.1,1.1,0,0,0,1.6-.351c.471-.626.932-1.26,1.408-1.883a1.123,1.123,0,0,1,1.771-.229q.908.676,1.818,1.351a1.111,1.111,0,0,0,1.7-.13c.558-.551,1.107-1.112,1.666-1.662a1.088,1.088,0,0,1,1.664-.008c.542.527,1.068,1.069,1.6,1.6a1.167,1.167,0,0,0,1.859.13q.888-.669,1.787-1.322a1.111,1.111,0,0,1,1.706.257c.487.65.962,1.309,1.457,1.952a1.073,1.073,0,0,0,1.506.327c.72-.374,1.426-.773,2.146-1.147a1.084,1.084,0,0,1,1.62.479c.38.684.741,1.378,1.114,2.066a1.124,1.124,0,0,0,1.592.612q1.1-.4,2.207-.792a1.108,1.108,0,0,1,1.52.679c.286.758.553,1.522.834,2.282a1.117,1.117,0,0,0,1.43.813q1.127-.23,2.252-.469a1.12,1.12,0,0,1,1.5.969c.168.792.327,1.585.5,2.375a1.047,1.047,0,0,0,1.148.918c.841-.025,1.68-.08,2.521-.108a1.045,1.045,0,0,1,1.236,1.086c.064.781.115,1.564.144,2.347a1.142,1.142,0,0,0,1.116,1.255q1.125.125,2.256.2a1.192,1.192,0,0,1,1.221,1.513c-.1.748-.165,1.5-.215,2.253a1.1,1.1,0,0,0,.938,1.272c.744.182,1.491.354,2.237.531a1.138,1.138,0,0,1,.959,1.578c-.172.7-.348,1.4-.52,2.108a1.191,1.191,0,0,0,.826,1.616c.7.28,1.4.57,2.095.85a1.106,1.106,0,0,1,.689,1.576c-.293.74-.6,1.472-.89,2.214a1.118,1.118,0,0,0,.542,1.557c.672.4,1.357.782,2.029,1.185a1.119,1.119,0,0,1,.418,1.706q-.564.957-1.124,1.916a1.162,1.162,0,0,0,.328,1.774q.905.716,1.8,1.446a1.089,1.089,0,0,1,.2,1.621c-.487.632-1,1.243-1.493,1.872a1.2,1.2,0,0,0,.169,1.868c.561.547,1.089,1.129,1.608,1.716a1.091,1.091,0,0,1-.205,1.56c-.519.489-1.049.966-1.571,1.452-.759.707-.807,1.1-.228,1.957.405.6.826,1.2,1.234,1.8a1.105,1.105,0,0,1-.305,1.666c-.652.46-1.313.907-1.969,1.362a1.086,1.086,0,0,0-.425,1.546c.333.708.686,1.406,1.029,2.11a1.134,1.134,0,0,1-.585,1.721c-.688.342-1.38.676-2.069,1.015a1.115,1.115,0,0,0-.65,1.506c.233.731.477,1.457.706,2.189a1.123,1.123,0,0,1-.861,1.624q-1.051.341-2.1.682a1.152,1.152,0,0,0-.917,1.453c.123.757.258,1.511.4,2.265a1.115,1.115,0,0,1-.977,1.421c-.781.148-1.565.283-2.35.414a1.149,1.149,0,0,0-1.075,1.327c.024.77.044,1.539.053,2.309a1.125,1.125,0,0,1-1.206,1.242c-.742.017-1.484,0-2.225.016a1.2,1.2,0,0,0-1.371,1.234c-.1.79-.2,1.581-.327,2.367a1,1,0,0,1-1.131.919c-.807-.065-1.612-.172-2.412-.3a1.178,1.178,0,0,0-1.517.93c-.2.724-.4,1.45-.6,2.175a1.127,1.127,0,0,1-1.579.892q-1.128-.313-2.256-.621a1.11,1.11,0,0,0-1.453.684c-.322.713-.635,1.43-.957,2.142a1.106,1.106,0,0,1-1.632.64c-.731-.316-1.454-.65-2.184-.968a1.082,1.082,0,0,0-1.508.443c-.429.655-.844,1.32-1.263,1.982a1.141,1.141,0,0,1-1.774.4c-.637-.406-1.272-.814-1.912-1.215a1.134,1.134,0,0,0-1.69.25c-.511.594-1.021,1.19-1.541,1.777a1.1,1.1,0,0,1-1.688.115l-1.846-1.592a1.069,1.069,0,0,0-1.529-.017q-.965.8-1.916,1.627a1.076,1.076,0,0,1-1.62-.109c-.545-.622-1.084-1.25-1.627-1.873a1.112,1.112,0,0,0-1.56-.228c-.673.428-1.341.864-2.02,1.283a1.091,1.091,0,0,1-1.68-.365c-.439-.666-.865-1.34-1.292-2.013a1.073,1.073,0,0,0-1.487-.486c-.746.317-1.48.661-2.223.984a1.1,1.1,0,0,1-1.612-.608c-.33-.709-.638-1.428-.954-2.142a1.132,1.132,0,0,0-1.516-.711q-1.149.319-2.3.629a1.1,1.1,0,0,1-1.469-.837c-.209-.737-.41-1.476-.613-2.215a1.146,1.146,0,0,0-1.406-.981c-.749.082-1.5.176-2.242.287a1.143,1.143,0,0,1-1.472-1.07c-.1-.762-.186-1.526-.273-2.289a1.16,1.16,0,0,0-1.25-1.131c-.756-.011-1.512-.006-2.267-.034-.925-.035-1.272-.413-1.271-1.335q0-.535,0-1.07Zm77.026-31.144a42.224,42.224,0,1,0-42.526,42.158A42.241,42.241,0,0,0,172.914,196.809Z" transform="translate(0 0)"/><path class="b" d="M180.724,204.656A42.224,42.224,0,1,1,138.883,162.3,42.242,42.242,0,0,1,180.724,204.656Zm-82.852-.083A40.629,40.629,0,1,0,138.332,163.9,40.672,40.672,0,0,0,97.871,204.573Z" transform="translate(-7.809 -7.847)"/><path class="a" d="M100.049,206.763a40.629,40.629,0,1,1,42.416,40.6A40.666,40.666,0,0,1,100.049,206.763Zm66.524-.008a25.892,25.892,0,1,0-26.142,25.9A25.937,25.937,0,0,0,166.573,206.756Zm-58.716-17.044,6.09,4.079.77-1.173-4.77-3.2a1.171,1.171,0,0,1,.209,0c1.59.422,3.177.85,4.768,1.269.963.254.973.253,1.5-.618a.52.52,0,0,0-.016-.469c-1.069-1.44-2.158-2.865-3.24-4.3a1.7,1.7,0,0,1-.123-.221l.052-.039,4.635,3.1.773-1.168-6.086-4.074-1.239,1.853,3.514,4.6c-1.828-.487-3.565-.954-5.306-1.406a.45.45,0,0,0-.388.083C108.606,188.569,108.246,189.131,107.858,189.712Zm40.192,47.522c.134.119.167.145.195.175q1.876,1.992,3.754,3.981c.106.112.292.263.4.236.587-.143,1.16-.337,1.757-.519L151.951,234l-1.353.431,1.575,5.093a.519.519,0,0,1-.276-.167q-1.426-1.506-2.851-3.012c-.352-.371-.665-.93-1.089-1.039s-.956.264-1.452.379c-.357.082-.363.233-.264.54.447,1.391.865,2.791,1.3,4.187.259.834.525,1.665.79,2.507l1.348-.43Zm-20.915-64.683,2.165,4.841a1.584,1.584,0,0,1-.455-.291q-1.974-1.637-3.95-3.271c-.087-.071-.242-.157-.32-.125-.547.225-1.082.479-1.652.738l3,6.683,1.273-.576-2.212-4.955c.123.089.159.112.192.139,1.379,1.149,2.755,2.3,4.143,3.441.134.11.374.232.5.184.529-.193,1.035-.451,1.585-.7l-2.993-6.683ZM110.3,211.164l-1.1-3.373,2.814-2.018c-.935-.083-1.815-.085-2.7-.083-.779,0-.772,0-1.01-.729-.274-.839-.562-1.674-.885-2.63-.352,1.07-.676,2.007-.961,2.955-.093.309-.218.43-.55.416-.669-.028-1.34-.01-2.01-.01h-1c.805.689,1.625,1.3,2.459,1.883a.406.406,0,0,1,.172.562c-.337.971-.642,1.952-.989,3.024l2.876-2.08Zm66.513-.006c-.344-1.066-.642-2.036-.976-2.993a.455.455,0,0,1,.216-.626c.647-.441,1.273-.912,1.905-1.373.176-.128.346-.264.614-.471h-3.529l-1.1-3.356c-.351,1.073-.68,2.038-.976,3.013a.408.408,0,0,1-.474.346c-.94-.015-1.881-.005-2.822,0a3.219,3.219,0,0,0-.321.04c.744.543,1.425,1.031,2.1,1.532.722.54.715.545.436,1.4-.261.8-.515,1.593-.806,2.494l2.873-2.076Zm-56.54-26.267a3.9,3.9,0,0,0,2.58-1.553,2.991,2.991,0,0,0,.727-2.53,4.511,4.511,0,0,0-1.233-2.292,3.32,3.32,0,0,0-4.829-.441,3.28,3.28,0,0,0-1.39,3.547,4.86,4.86,0,0,0,1.535,2.365A3.419,3.419,0,0,0,120.273,184.891Zm-6.81,42.441.958,1.292c-.384.289-.723.574-1.094.808a.517.517,0,0,1-.469-.016,2.773,2.773,0,0,1-1.158-1.588,1.855,1.855,0,0,1,.059-1.024,3.6,3.6,0,0,1,2.249-2.008,1.678,1.678,0,0,1,.833-.057,2.827,2.827,0,0,1,1.946,1.639c.253.438.444.913.674,1.4l1.067-.817c-.491-.772-.918-1.562-1.46-2.264a3.319,3.319,0,0,0-2.488-1.478,4.483,4.483,0,0,0-3.54,1.776,2.964,2.964,0,0,0-.743,2.891,5.653,5.653,0,0,0,2.824,3.276c.083.052.292-.018.4-.093.464-.329.913-.68,1.366-1.025s.894-.688,1.352-1.04l-1.815-2.4ZM150.785,171.3l-2.453,6.933c.592.207,1.1.428,1.637.562a11.5,11.5,0,0,0,2.157.408,1.822,1.822,0,0,0,1.8-1.378c.225-.708.006-1.239-.749-1.819a.693.693,0,0,1-.083-.094c1.212-.1,1.626-.482,1.746-1.577a1.9,1.9,0,0,0-1.283-1.968C152.668,171.968,151.736,171.664,150.785,171.3Zm-18.147,71.562c.19-1.011.371-1.968.551-2.921.941-.04,1.324.213,1.412.924s.164,1.441.27,2.158a.435.435,0,0,0,.253.3c.45.108.91.173,1.409.261-.063-.473-.118-.906-.177-1.34-.061-.451-.143-.9-.183-1.352a1.409,1.409,0,0,0-.681-1.258,1.624,1.624,0,0,0,1.469-1.1,1.858,1.858,0,0,0-1.13-2.475c-1.047-.363-2.154-.557-3.279-.835-.468,2.511-.916,4.919-1.374,7.372Zm13.079.534c.008-.04.016-.057.012-.067q-1.474-3.5-2.959-6.986a.408.408,0,0,0-.315-.186c-.427,0-.854.073-1.28.062-.288-.007-.393.11-.469.359-.454,1.478-.922,2.95-1.382,4.427-.284.913-.561,1.829-.841,2.744a12.2,12.2,0,0,0,1.277-.015.606.606,0,0,0,.4-.322,6.218,6.218,0,0,0,.348-1.094.474.474,0,0,1,.527-.417c.641-.019,1.283-.041,1.921-.1.346-.031.541.041.664.4.153.447.284,1.05.621,1.243s.937,0,1.42-.03A.22.22,0,0,0,145.716,243.4Zm-23.58-4.319c.43.187.8.329,1.154.507a.423.423,0,0,0,.59-.117c.327-.374.675-.73,1.02-1.1.8.348,1.584.679,2.354,1.039a.5.5,0,0,1,.207.381c.005.44-.044.881-.051,1.321a.39.39,0,0,0,.132.305c.417.2.849.376,1.319.578.149-2.588.3-5.127.43-7.666a.456.456,0,0,0-.228-.333c-.379-.193-.784-.333-1.165-.523a.4.4,0,0,0-.545.119c-.728.781-1.474,1.546-2.209,2.319C124.154,236.95,123.168,237.992,122.136,239.08ZM153.6,180.056c.4.258.753.5,1.125.7a.5.5,0,0,0,.432-.019,11.149,11.149,0,0,0,1.023-.77.345.345,0,0,1,.485-.014c.543.365,1.086.732,1.652,1.06a.623.623,0,0,1,.32.781c-.086.358-.182.715-.241,1.078a.41.41,0,0,0,.132.334c.357.255.735.48,1.122.726a2.636,2.636,0,0,0,.107-.3c.516-2.309,1.027-4.619,1.547-6.928a.466.466,0,0,0-.252-.592c-.348-.193-.666-.439-1.014-.63a.45.45,0,0,0-.4,0C157.639,176.991,155.645,178.506,153.6,180.056Zm-33.88,47.973c-.948,1.2-1.877,2.374-2.793,3.553a3.046,3.046,0,0,0,4.587,4c1.008-1.232,1.972-2.5,2.982-3.788l-1.174-.915c-.083.1-.131.147-.174.2q-1.425,1.813-2.849,3.628a1.314,1.314,0,0,1-1.146.634,1.973,1.973,0,0,1-1.568-1.117,1.264,1.264,0,0,1,.315-1.446q1.084-1.376,2.164-2.755c.27-.344.535-.691.822-1.06Zm49.06-40,2.58-1.6-.74-1.193-6.233,3.862.749,1.181,2.563-1.58c.453.506.452.506.209,1.06-.395.9-.79,1.795-1.179,2.695-.042.1-.1.24-.056.311.247.434.521.853.816,1.326.556-1.325,1.071-2.571,1.607-3.809a.534.534,0,0,1,.367-.293c.64,0,1.28.066,1.921.079.742.016,1.484,0,2.229,0-.2-.328-.4-.706-.657-1.043a.759.759,0,0,0-.5-.279c-.925-.047-1.852-.081-2.778-.066A.788.788,0,0,1,168.779,188.025Zm-5.362,41.664-1.977,1.738-1.184-1.349,1.959-1.75-.6-1.054-3.287,2.917,4.935,5.563,3.289-2.909-.8-.889-2.162,1.913-1.354-1.546,1.971-1.757Zm6.816-3.259-1.745,2.306-1.635-1.241,1.58-2.113-.947-.71-1.579,2.07-1.451-1.048,1.588-2.117-.809-.9-2.64,3.509,5.949,4.464,2.637-3.5ZM132.915,178.3l4.26-.833-.258-1.176-2.776.529-.411-1.953,2.556-.529-.244-1.13-2.534.5-.358-1.735c.756-.151,1.492-.288,2.222-.454.129-.029.314-.166.329-.274a7.28,7.28,0,0,0,.016-.985l-4.239.854Zm35.172,5.784a5.694,5.694,0,0,0,.582-.573.459.459,0,0,0,.06-.416,9.784,9.784,0,0,0-1.289-1.678,2.983,2.983,0,0,0-3.518-.532,4.875,4.875,0,0,0-2.351,2.385,2.958,2.958,0,0,0-.256.936,3.527,3.527,0,0,0,1.675,3.293c.926.684.954.667,1.749-.159.016-.016.012-.051,0-.007a15.4,15.4,0,0,1-1.451-1.137,1.736,1.736,0,0,1-.285-2.366,5.577,5.577,0,0,1,1.37-1.43,1.891,1.891,0,0,1,2.713.315A14.753,14.753,0,0,1,168.087,184.082ZM138.019,170.16a.324.324,0,0,0,.015.095c.562.99,1.081,2.008,1.7,2.959a3.972,3.972,0,0,1,.7,2.688,13.905,13.905,0,0,0-.008,1.407h1.428a8.427,8.427,0,0,0-.006-1,4.635,4.635,0,0,1,1.073-3.467c.6-.8,1.09-1.686,1.684-2.622-.473,0-.854-.025-1.229.011a.692.692,0,0,0-.463.249c-.569.868-1.109,1.755-1.684,2.677-.367-.628-.715-1.226-1.068-1.822-.232-.391-.387-.924-.732-1.124s-.887-.069-1.342-.081C138.073,170.126,138.061,170.138,138.019,170.16ZM155.1,233.616l3.143,5.417,1.284-.746-3.132-5.422,1.832-1.079-.6-.992-4.576,2.647c-.121.071-.238.15-.38.241l.584.995Z" transform="translate(-9.987 -10.038)"/><path class="b" d="M118.515,212.65c.388-.581.748-1.143,1.139-1.683a.45.45,0,0,1,.388-.083c1.741.452,3.478.919,5.306,1.406l-3.514-4.6,1.239-1.853,6.086,4.074-.773,1.168-4.635-3.1-.052.039a1.7,1.7,0,0,0,.123.221c1.082,1.431,2.171,2.856,3.24,4.3a.52.52,0,0,1,.016.469c-.525.871-.535.872-1.5.618-1.59-.419-3.178-.847-4.768-1.269a1.17,1.17,0,0,0-.209,0l4.77,3.2-.77,1.173Z" transform="translate(-20.644 -32.976)"/><path class="b" d="M211.017,329.912l1.627,5.254-1.348.43c-.266-.841-.532-1.673-.79-2.507-.433-1.4-.851-2.8-1.3-4.187-.1-.307-.093-.458.264-.54.5-.115,1.03-.488,1.452-.379s.737.669,1.089,1.039q1.429,1.5,2.851,3.012a.519.519,0,0,0,.276.167l-1.575-5.093,1.353-.431,2.207,7.108c-.6.182-1.17.376-1.757.519-.11.027-.3-.124-.4-.236q-1.884-1.984-3.754-3.981C211.184,330.057,211.151,330.032,211.017,329.912Z" transform="translate(-72.954 -102.717)"/><path class="b" d="M158.353,180.58l1.277-.577,2.993,6.683c-.55.25-1.055.507-1.585.7-.131.048-.37-.074-.5-.184-1.387-1.14-2.763-2.293-4.143-3.441-.033-.028-.069-.05-.192-.139l2.212,4.955-1.273.576-3-6.683c.57-.259,1.1-.513,1.652-.738.078-.032.233.054.32.125q1.98,1.63,3.95,3.271a1.583,1.583,0,0,0,.455.291Z" transform="translate(-41.205 -18.067)"/><path class="b" d="M114.206,260.625l-2.873-2.083-2.876,2.08c.347-1.071.652-2.053.989-3.024a.406.406,0,0,0-.172-.562c-.834-.587-1.654-1.194-2.459-1.883h1c.67,0,1.341-.018,2.01.01.332.014.457-.107.55-.416.285-.948.609-1.884.961-2.955.322.957.611,1.791.885,2.63.238.729.23.73,1.01.729.88,0,1.76,0,2.7.083l-2.814,2.018Z" transform="translate(-13.892 -59.498)"/><path class="b" d="M271.393,260.629l-2.866-2.075-2.873,2.076c.291-.9.545-1.7.806-2.494.28-.853.287-.858-.436-1.4-.671-.5-1.352-.989-2.1-1.532a3.212,3.212,0,0,1,.321-.04c.941,0,1.881-.012,2.822,0a.408.408,0,0,0,.474-.346c.3-.975.625-1.94.976-3.013l1.1,3.356h3.529c-.268.206-.438.343-.614.471-.633.461-1.258.932-1.905,1.373a.455.455,0,0,0-.216.626C270.751,258.593,271.049,259.562,271.393,260.629Z" transform="translate(-104.567 -59.509)"/><path class="b" d="M142.074,200.1a3.42,3.42,0,0,1-2.609-.9,4.86,4.86,0,0,1-1.535-2.365,3.28,3.28,0,0,1,1.39-3.547,3.32,3.32,0,0,1,4.829.441,4.511,4.511,0,0,1,1.233,2.292,2.991,2.991,0,0,1-.727,2.53A3.9,3.9,0,0,1,142.074,200.1ZM144,196.85a3.772,3.772,0,0,0-2.341-3,1.957,1.957,0,0,0-2.41,1.9,3.8,3.8,0,0,0,2.252,2.939A1.978,1.978,0,0,0,144,196.85Z" transform="translate(-31.788 -25.248)"/><path class="b" d="M127.3,305.287l.958-.733,1.815,2.4c-.457.352-.9.7-1.351,1.04s-.9.7-1.366,1.025c-.106.075-.315.146-.4.093a5.653,5.653,0,0,1-2.824-3.276,2.964,2.964,0,0,1,.743-2.891,4.483,4.483,0,0,1,3.54-1.776,3.319,3.319,0,0,1,2.488,1.478c.542.7.969,1.491,1.46,2.264l-1.067.817c-.23-.483-.42-.957-.674-1.4a2.827,2.827,0,0,0-1.946-1.639,1.678,1.678,0,0,0-.833.057,3.6,3.6,0,0,0-2.249,2.008,1.855,1.855,0,0,0-.059,1.024,2.773,2.773,0,0,0,1.158,1.588.518.518,0,0,0,.469.016c.372-.233.711-.518,1.094-.808Z" transform="translate(-23.821 -87.993)"/><path class="b" d="M216.683,178.416c.95.362,1.883.665,2.77,1.068a1.9,1.9,0,0,1,1.283,1.968c-.12,1.095-.534,1.472-1.746,1.577a.694.694,0,0,0,.083.094c.755.58.974,1.111.749,1.819a1.822,1.822,0,0,1-1.8,1.378,11.5,11.5,0,0,1-2.157-.409c-.533-.134-1.045-.355-1.637-.562Zm-.654,6.32c.285.1.522.19.76.274a2.715,2.715,0,0,0,.365.118,1.034,1.034,0,0,0,.668-1.952c-.343-.16-.709-.268-1.1-.412Zm1.666-4.714c-.191.538-.36,1.014-.528,1.49-.022.063-.036.129-.065.234.4.125.764.264,1.143.356a.792.792,0,0,0,.951-.515.75.75,0,0,0-.318-1.058A12.285,12.285,0,0,0,217.694,180.022Z" transform="translate(-75.884 -17.151)"/><path class="b" d="M175.124,337.214l-1.459-.271c.458-2.453.906-4.861,1.374-7.372,1.126.279,2.232.472,3.279.835a1.858,1.858,0,0,1,1.13,2.475,1.624,1.624,0,0,1-1.469,1.105,1.409,1.409,0,0,1,.681,1.258c.04.453.122.9.183,1.352.058.433.114.867.177,1.34-.5-.088-.96-.154-1.409-.261a.435.435,0,0,1-.253-.3c-.106-.717-.181-1.438-.27-2.158s-.471-.964-1.412-.924C175.495,335.246,175.314,336.2,175.124,337.214Zm.779-4.155c.469.038.877.1,1.283.095.459-.008.721-.3.828-.822a.815.815,0,0,0-.491-.942c-.391-.146-.809-.225-1.244-.34Z" transform="translate(-52.473 -104.387)"/><path class="b" d="M198.171,339.029a.22.22,0,0,1-.054.024c-.483.027-1.068.232-1.42.03s-.469-.8-.621-1.243c-.123-.361-.318-.432-.664-.4-.639.057-1.28.079-1.921.1a.474.474,0,0,0-.527.417,6.224,6.224,0,0,1-.348,1.094.606.606,0,0,1-.4.322,12.206,12.206,0,0,1-1.277.015c.28-.916.557-1.831.841-2.744.459-1.476.927-2.949,1.382-4.427.077-.249.181-.366.469-.359.426.011.853-.058,1.28-.062a.408.408,0,0,1,.315.186q1.492,3.487,2.959,6.986C198.187,338.972,198.178,338.989,198.171,339.029Zm-4.635-2.909h1.8l-1.035-2.448Z" transform="translate(-62.441 -105.668)"/><path class="b" d="M152.281,330.955c1.031-1.088,2.018-2.13,3.007-3.17.736-.773,1.481-1.539,2.21-2.319a.4.4,0,0,1,.545-.119c.381.19.786.33,1.165.523a.456.456,0,0,1,.228.333c-.132,2.539-.281,5.078-.43,7.666-.47-.2-.9-.375-1.319-.578a.39.39,0,0,1-.132-.305c.007-.441.056-.881.051-1.321a.5.5,0,0,0-.207-.381c-.77-.36-1.554-.69-2.354-1.039-.345.37-.693.726-1.02,1.1a.423.423,0,0,1-.59.117C153.082,331.284,152.711,331.142,152.281,330.955Zm5.567-3.418-1.894,1.629,1.763.759C157.765,329.046,157.81,328.227,157.848,327.537Z" transform="translate(-40.131 -101.913)"/><path class="b" d="M226.685,192.819c2.045-1.55,4.039-3.065,6.043-4.567a.45.45,0,0,1,.4,0c.348.191.667.437,1.014.63a.466.466,0,0,1,.252.592c-.52,2.308-1.031,4.619-1.547,6.928a2.639,2.639,0,0,1-.107.3c-.387-.246-.765-.471-1.122-.727a.41.41,0,0,1-.132-.334c.058-.363.154-.72.241-1.078a.623.623,0,0,0-.32-.781c-.566-.328-1.11-.695-1.652-1.06a.345.345,0,0,0-.485.014,11.149,11.149,0,0,1-1.023.77.5.5,0,0,1-.432.019C227.438,193.322,227.089,193.077,226.685,192.819Zm5.448-.143c.194-.857.373-1.652.575-2.543l-2.086,1.577Z" transform="translate(-83.072 -22.801)"/><path class="b" d="M141.742,312.56l1.167.93c-.286.369-.552.716-.822,1.06q-1.08,1.378-2.164,2.755a1.264,1.264,0,0,0-.315,1.446,1.973,1.973,0,0,0,1.568,1.117,1.314,1.314,0,0,0,1.146-.634l2.849-3.628c.043-.055.091-.106.174-.2l1.174.916c-1.01,1.287-1.974,2.556-2.982,3.788a3.046,3.046,0,0,1-4.587-4C139.865,314.934,140.794,313.764,141.742,312.56Z" transform="translate(-32.009 -94.569)"/><path class="b" d="M256.588,214.146a.788.788,0,0,0,.9.651c.926-.015,1.853.019,2.778.066a.759.759,0,0,1,.5.28c.254.337.455.716.657,1.043-.745,0-1.487.013-2.229,0-.641-.014-1.281-.078-1.921-.079a.534.534,0,0,0-.367.293c-.537,1.237-1.052,2.484-1.607,3.809-.3-.473-.569-.892-.816-1.326-.041-.071.014-.214.056-.311.389-.9.784-1.8,1.179-2.695.243-.554.244-.554-.209-1.06l-2.563,1.58-.749-1.181,6.233-3.862.74,1.193Z" transform="translate(-97.795 -36.159)"/><path class="b" d="M242.956,313.19l.792.878-1.971,1.757,1.354,1.546,2.162-1.913.8.889-3.289,2.909-4.935-5.563,3.287-2.917.6,1.054-1.959,1.75,1.184,1.349Z" transform="translate(-89.526 -93.539)"/><path class="b" d="M255.6,303.652l.949.713-2.637,3.5-5.949-4.464,2.64-3.509.809.9-1.588,2.117,1.451,1.048,1.579-2.07.947.71-1.58,2.113,1.635,1.241Z" transform="translate(-95.35 -87.261)"/><path class="b" d="M175.808,183.979l-1.437-7.191,4.239-.854a7.279,7.279,0,0,1-.016.985c-.015.108-.2.245-.329.274-.73.166-1.466.3-2.222.454l.358,1.735,2.534-.5.244,1.13-2.556.529.411,1.953,2.776-.529.258,1.176Z" transform="translate(-52.88 -15.718)"/><path class="b" d="M251.677,203.793a14.751,14.751,0,0,0-1-1.369,1.891,1.891,0,0,0-2.713-.315,5.577,5.577,0,0,0-1.37,1.43,1.736,1.736,0,0,0,.285,2.366,15.4,15.4,0,0,0,1.451,1.137c.009-.044.013-.009,0,.007-.795.826-.823.842-1.749.159a3.527,3.527,0,0,1-1.675-3.293,2.958,2.958,0,0,1,.256-.936,4.875,4.875,0,0,1,2.351-2.385,2.983,2.983,0,0,1,3.518.532,9.78,9.78,0,0,1,1.289,1.678.459.459,0,0,1-.06.416A5.7,5.7,0,0,1,251.677,203.793Z" transform="translate(-93.577 -29.749)"/><path class="b" d="M189.84,175.625c.042-.022.055-.033.067-.033.455.013,1-.12,1.342.081s.5.734.732,1.124c.353.6.7,1.194,1.068,1.822.575-.922,1.115-1.809,1.684-2.677a.692.692,0,0,1,.463-.249c.375-.036.756-.011,1.229-.011-.595.935-1.084,1.82-1.684,2.622a4.636,4.636,0,0,0-1.073,3.467,8.426,8.426,0,0,1,.006,1h-1.428a13.906,13.906,0,0,1,.008-1.407,3.972,3.972,0,0,0-.7-2.688c-.622-.951-1.14-1.969-1.7-2.959A.325.325,0,0,1,189.84,175.625Z" transform="translate(-61.808 -15.503)"/><path class="b" d="M226.9,321.922l-1.847,1.061-.584-.995c.142-.09.259-.17.38-.241l4.576-2.647.6.992L228.2,321.17l3.132,5.422-1.284.746Z" transform="translate(-81.796 -98.344)"/><path class="a" d="M164.432,250.653a14.279,14.279,0,0,1,.4-4.359,4.335,4.335,0,0,1,3.012-3.206,4.288,4.288,0,0,1,5.3,2.713,9.507,9.507,0,0,1,.567,3.427c.018,1.666,0,3.335-.084,5a6.159,6.159,0,0,1-1.159,3.38,4.325,4.325,0,0,1-7.3-.825,9.124,9.124,0,0,1-.739-3.69C164.416,252.278,164.432,251.465,164.432,250.653Zm2.695.427.06,0c0,.755,0,1.51,0,2.265,0,.3.011.6.038.9a3.519,3.519,0,0,0,.639,1.955,1.507,1.507,0,0,0,2.495-.129,4.08,4.08,0,0,0,.523-1.724c.086-1.89.1-3.785.083-5.677a4.585,4.585,0,0,0-.6-2.582,1.514,1.514,0,0,0-2.523-.08,2.962,2.962,0,0,0-.516,1.327C167.208,248.577,167.187,249.83,167.127,251.08Z" transform="translate(-47.141 -54.374)"/><path class="a" d="M190.537,251.029c.048-1.152.043-2.31.158-3.456a5.287,5.287,0,0,1,1.723-3.654,4.3,4.3,0,0,1,6.815,1.751,8.534,8.534,0,0,1,.6,3.081c.028,1.554.034,3.11,0,4.664a7.789,7.789,0,0,1-.732,3.349,4.086,4.086,0,0,1-3.971,2.456,4.131,4.131,0,0,1-3.933-2.714,8.673,8.673,0,0,1-.616-3.547c0-.642,0-1.284,0-1.925Zm6.482.061h.079c0-.87.055-1.745-.017-2.609a9.154,9.154,0,0,0-.432-2.114,1.554,1.554,0,0,0-2.9-.012,5.955,5.955,0,0,0-.4,1.817q-.075,2.887,0,5.776a6.049,6.049,0,0,0,.4,1.815,1.45,1.45,0,0,0,1.449,1,1.467,1.467,0,0,0,1.461-.985,3.99,3.99,0,0,0,.34-1.308C197.05,253.342,197.019,252.215,197.019,251.09Z" transform="translate(-62.21 -54.356)"/><path class="a" d="M151.488,243.5V259.3h-2.741V246.335h-2.753v-2.278Z" transform="translate(-36.503 -54.712)"/><path class="a" d="M216.691,246.648a4.059,4.059,0,0,1,.63-2.529,2.833,2.833,0,0,1,3.1-1.105,2.6,2.6,0,0,1,2.094,2.016,6.124,6.124,0,0,1,.032,3.084,2.94,2.94,0,0,1-5.721-.154C216.739,247.53,216.733,247.085,216.691,246.648Zm4.245.091a10.225,10.225,0,0,0-.3-1.414.929.929,0,0,0-.939-.613.91.91,0,0,0-.92.57,3.276,3.276,0,0,0,.019,2.727.986.986,0,0,0,1.743.074A5.892,5.892,0,0,0,220.936,246.739Z" transform="translate(-77.303 -54.386)"/><path class="a" d="M238.248,267.817a3.794,3.794,0,0,1-.444,2.249,2.9,2.9,0,0,1-3.251,1.311,2.813,2.813,0,0,1-2.188-2.489,9.676,9.676,0,0,1,.093-2.623c.332-1.593,1.588-2.334,3.361-2.149a2.889,2.889,0,0,1,2.426,2.784C238.259,267.185,238.248,267.47,238.248,267.817Zm-4.151-.07-.078.039a9.938,9.938,0,0,0,.439,1.427.906.906,0,0,0,.981.459.9.9,0,0,0,.839-.622,4,4,0,0,0,0-2.47,1.024,1.024,0,0,0-1.027-.751,1.071,1.071,0,0,0-1.017.826A8.4,8.4,0,0,0,234.1,267.747Z" transform="translate(-86.324 -66.595)"/><path class="a" d="M228.442,246.932l1.339.824-6.692,12.381-1.341-.821Z" transform="translate(-80.223 -56.694)"/><path class="a" d="M145.952,198.688a1.979,1.979,0,0,1-2.5,1.841,3.8,3.8,0,0,1-2.252-2.939,1.957,1.957,0,0,1,2.41-1.9A3.772,3.772,0,0,1,145.952,198.688Z" transform="translate(-33.736 -27.085)"/><path class="a" d="M218.483,190.669l.693-1.972c.39.144.757.252,1.1.412a1.034,1.034,0,0,1-.668,1.952,2.708,2.708,0,0,1-.365-.118C219,190.86,218.768,190.772,218.483,190.669Z" transform="translate(-78.338 -23.084)"/><path class="a" d="M221.613,182.214a12.284,12.284,0,0,1,1.184.506.75.75,0,0,1,.318,1.058.792.792,0,0,1-.951.515c-.38-.092-.748-.23-1.143-.356.029-.1.043-.171.065-.234C221.253,183.228,221.422,182.752,221.613,182.214Z" transform="translate(-79.803 -19.343)"/><path class="a" d="M178.957,335.076l.376-2.009c.436.115.853.194,1.244.34a.815.815,0,0,1,.491.942c-.107.524-.369.815-.828.823C179.834,335.178,179.426,335.114,178.957,335.076Z" transform="translate(-55.527 -106.405)"/><path class="a" d="M197.082,338.687l.767-2.448,1.035,2.448Z" transform="translate(-65.987 -108.235)"/><path class="a" d="M162.859,330.611c-.038.69-.083,1.509-.131,2.388l-1.763-.76Z" transform="translate(-45.143 -104.987)"/><path class="a" d="M237.507,195.307,236,194.341l2.086-1.577C237.88,193.655,237.7,194.45,237.507,195.307Z" transform="translate(-88.446 -25.432)"/></g></svg>