<svg xmlns="http://www.w3.org/2000/svg" width="83.69" height="91.435" viewBox="0 0 83.69 91.435"><defs><style>.a{fill:#fff;}.b{fill:#3c3c3b;font-size:2px;font-family:EncodeSansNarrow-SemiBold, Encode Sans;font-weight:600;}.c{letter-spacing:0.039em;}</style></defs><g transform="translate(-587.257 -232.276)"><path class="a" d="M638.26,299.145q-6.75-7.931-13.488-15.873c-.734-.864-1.47-1.725-2.229-2.617-.092.154-.156.255-.216.36-1.977,3.445-3.947,6.893-5.938,10.33a.574.574,0,0,0,.085.794q5.314,6.242,10.608,12.5,2.718,3.2,5.444,6.4a.849.849,0,0,0,.5.335c1.855.024,3.71.015,5.635.015v-.613c0-3.522-.009-7.045.011-10.567a1.515,1.515,0,0,0-.41-1.069" transform="translate(-15.997 -26.677)"/><path class="a" d="M648.989,276.9v-.506q0-7.395.007-14.789a1.284,1.284,0,0,0-.329-.929c-2.229-2.591-4.435-5.2-6.649-7.809-.5-.592-1.01-1.18-1.545-1.8L635,260.6,648.9,276.962l.094-.065" transform="translate(-26.327 -10.357)"/><path class="a" d="M607.207,315.748a9.131,9.131,0,0,0-.7,7.542,8.931,8.931,0,0,0,8.114,6.3c2.519.066,6.979.072,7.263.058l-13.51-15.93c-.4.7-.8,1.363-1.164,2.034" transform="translate(-10.335 -44.906)"/><path class="a" d="M657.2,243c.391.46.786.916,1.243,1.449V232.276c-.173.028-.323.039-.468.077a9.181,9.181,0,0,0-5.657,4.2.56.56,0,0,0,.064.793C654,239.221,655.6,241.116,657.2,243" transform="translate(-35.802)"/><path class="a" d="M698.148,292.138a.575.575,0,0,0,.085-.794q-2.986-5.155-5.939-10.33c-.06-.1-.123-.206-.216-.36-.76.892-1.5,1.754-2.229,2.617q-6.743,7.938-13.488,15.873a1.516,1.516,0,0,0-.411,1.069c.02,3.522.011,7.044.011,10.567v.613c1.924,0,3.78.009,5.635-.015a.852.852,0,0,0,.5-.335q2.73-3.194,5.443-6.4,5.3-6.254,10.608-12.5" transform="translate(-48.907 -26.677)"/><path class="a" d="M675.968,276.391v.506l.094.065L689.956,260.6l-5.473-9.545c-.535.625-1.042,1.213-1.545,1.8-2.214,2.6-4.419,5.217-6.648,7.808a1.283,1.283,0,0,0-.329.93q.015,7.393.007,14.788" transform="translate(-48.913 -10.358)"/><path class="a" d="M715.43,315.748c-.369-.671-.76-1.329-1.164-2.034l-13.51,15.93c.284.014,4.744.008,7.263-.058a8.932,8.932,0,0,0,8.114-6.3,9.135,9.135,0,0,0-.7-7.542" transform="translate(-62.586 -44.906)"/><path class="a" d="M682.082,237.345a.559.559,0,0,0,.064-.793,9.181,9.181,0,0,0-5.657-4.2c-.144-.037-.3-.049-.468-.077v12.176c.458-.532.852-.989,1.243-1.449,1.6-1.888,3.2-3.783,4.818-5.659" transform="translate(-48.946)"/><path class="a" d="M607.78,428a6.4,6.4,0,0,1-.792-.052q-.414-.052-.942-.172v-6.334h.9v2.611a1.649,1.649,0,0,1,1.323-.537,1.586,1.586,0,0,1,1.3.528,2.524,2.524,0,0,1,.436,1.626,3.124,3.124,0,0,1-.139.965,1.834,1.834,0,0,1-1.114,1.193A2.727,2.727,0,0,1,607.78,428Zm.009-.624a1.217,1.217,0,0,0,.984-.372,1.971,1.971,0,0,0,.314-1.261,2.157,2.157,0,0,0-.256-1.209.933.933,0,0,0-.817-.36,1.4,1.4,0,0,0-.414.06.993.993,0,0,0-.344.18.845.845,0,0,0-.231.3.992.992,0,0,0-.083.42v2.162a3,3,0,0,0,.393.06Q607.554,427.372,607.789,427.372Zm3.954.576a1.207,1.207,0,0,1-.888-.308,1.334,1.334,0,0,1,.1-1.814,2.29,2.29,0,0,1,1.269-.392l.98-.072V425.1a1.763,1.763,0,0,0-.046-.44.589.589,0,0,0-.159-.284.636.636,0,0,0-.31-.152,2.3,2.3,0,0,0-.49-.044,5.339,5.339,0,0,0-.6.04q-.344.04-.679.1l-.067-.641a8.048,8.048,0,0,1,1.508-.152,2.094,2.094,0,0,1,1.319.34,1.291,1.291,0,0,1,.423,1.069v2.971h-.737l-.084-.536h-.059a3.245,3.245,0,0,1-.712.42A1.938,1.938,0,0,1,611.743,427.949Zm-.293-1.249q0,.609.637.609a1.391,1.391,0,0,0,.566-.132,4.19,4.19,0,0,0,.549-.292v-1l-.737.064a1.65,1.65,0,0,0-.787.224.615.615,0,0,0-.226.528Zm4.918,1.3a4.976,4.976,0,0,1-.658-.048q-.357-.048-.817-.144v-.657q.377.1.742.152a4.567,4.567,0,0,0,.691.056,1.122,1.122,0,0,0,.658-.16.53.53,0,0,0,.222-.457.51.51,0,0,0-.214-.456,1.616,1.616,0,0,0-.607-.216q-.243-.04-.5-.1a1.512,1.512,0,0,1-.465-.192,1.057,1.057,0,0,1-.348-.368,1.26,1.26,0,0,1-.138-.637,1.128,1.128,0,0,1,.436-.941,1.9,1.9,0,0,1,1.2-.34,5.281,5.281,0,0,1,.578.032q.293.032.746.12l-.025.672q-.41-.088-.687-.124a3.955,3.955,0,0,0-.5-.036,1.165,1.165,0,0,0-.662.156.5.5,0,0,0-.226.436.537.537,0,0,0,.067.28.493.493,0,0,0,.188.18,1.253,1.253,0,0,0,.285.112c.109.029.23.057.364.084a4.167,4.167,0,0,1,.545.14,1.391,1.391,0,0,1,.432.228,1.017,1.017,0,0,1,.285.365,1.27,1.27,0,0,1,.1.548,1.159,1.159,0,0,1-.44.969A1.992,1.992,0,0,1,616.368,428Zm3.468-5.742q0,.5-.536.5a.567.567,0,0,1-.4-.12.627.627,0,0,1,0-.753.569.569,0,0,1,.4-.12q.536,0,.536.5Zm-.98,1.33h.888v4.324h-.888Zm3.837,4.4a2.1,2.1,0,0,1-1.588-.548,2.364,2.364,0,0,1-.524-1.686q0-2.235,2.111-2.234a5.212,5.212,0,0,1,.524.028,4.267,4.267,0,0,1,.515.084v.7a4.506,4.506,0,0,0-.947-.1,1.231,1.231,0,0,0-.989.364,1.77,1.77,0,0,0-.31,1.157,1.8,1.8,0,0,0,.3,1.161,1.209,1.209,0,0,0,.98.361q.26,0,.482-.02a3.959,3.959,0,0,0,.482-.076v.689a3.19,3.19,0,0,1-.486.088A5.023,5.023,0,0,1,622.693,427.98ZM625.8,428a4.976,4.976,0,0,1-.658-.048q-.357-.048-.817-.144v-.657q.377.1.741.152a4.567,4.567,0,0,0,.691.056,1.12,1.12,0,0,0,.658-.16.529.529,0,0,0,.222-.457.51.51,0,0,0-.214-.456,1.616,1.616,0,0,0-.607-.216q-.243-.04-.5-.1a1.514,1.514,0,0,1-.465-.192,1.057,1.057,0,0,1-.348-.368,1.259,1.259,0,0,1-.138-.637,1.128,1.128,0,0,1,.436-.941,1.9,1.9,0,0,1,1.2-.34,5.28,5.28,0,0,1,.578.032q.293.032.745.12l-.025.672q-.411-.088-.687-.124a3.955,3.955,0,0,0-.5-.036,1.165,1.165,0,0,0-.662.156.5.5,0,0,0-.226.436.542.542,0,0,0,.067.28.5.5,0,0,0,.189.18,1.249,1.249,0,0,0,.285.112c.109.029.23.057.364.084a4.163,4.163,0,0,1,.545.14,1.39,1.39,0,0,1,.432.228,1.018,1.018,0,0,1,.285.365,1.272,1.272,0,0,1,.1.548,1.158,1.158,0,0,1-.44.969A1.992,1.992,0,0,1,625.8,428Zm4.205-4.412h.754l.059.584h.034a6.718,6.718,0,0,1,.712-.393,3.541,3.541,0,0,1,.737-.264h.251v.793h-.327a3.6,3.6,0,0,0-.7.172,3.445,3.445,0,0,0-.62.284v3.147h-.9Zm4.809,4.4a2.005,2.005,0,0,1-1.533-.552,2.291,2.291,0,0,1-.519-1.626,2.508,2.508,0,0,1,.515-1.706,1.9,1.9,0,0,1,1.5-.585q1.7,0,1.7,1.93,0,.192-.013.332a2.118,2.118,0,0,1-.038.26H633.66a1.5,1.5,0,0,0,.331.977,1.221,1.221,0,0,0,.909.3,4.4,4.4,0,0,0,.671-.056,4.449,4.449,0,0,0,.7-.168l.042.649a4.364,4.364,0,0,1-.72.18A4.672,4.672,0,0,1,634.816,427.98Zm-.059-3.828a.969.969,0,0,0-.788.32,1.714,1.714,0,0,0-.31,1h2.011a1.94,1.94,0,0,0-.227-1.017A.772.772,0,0,0,634.757,424.153Zm5.378,3.259a1.561,1.561,0,0,1-1.307.576,1.59,1.59,0,0,1-1.3-.532,2.568,2.568,0,0,1-.44-1.654,2.315,2.315,0,0,1,.586-1.722,2.209,2.209,0,0,1,1.617-.576q.226,0,.436.02c.14.013.282.03.427.052v-2.138h.888v6.471h-.787l-.075-.5Zm-1.056-.08a1.336,1.336,0,0,0,.415-.064,1.011,1.011,0,0,0,.343-.188.869.869,0,0,0,.231-.308,1.041,1.041,0,0,0,.084-.432v-2.122c-.14-.026-.282-.047-.427-.06s-.3-.02-.461-.02a1.178,1.178,0,0,0-.955.369,1.922,1.922,0,0,0-.31,1.233,2.223,2.223,0,0,0,.255,1.225A.932.932,0,0,0,639.08,427.332Zm4.851.649a2.005,2.005,0,0,1-1.533-.552,2.291,2.291,0,0,1-.519-1.626,2.506,2.506,0,0,1,.515-1.706,1.9,1.9,0,0,1,1.5-.585q1.7,0,1.7,1.93c0,.128,0,.239-.013.332a2.3,2.3,0,0,1-.038.26h-2.773a1.506,1.506,0,0,0,.331.977,1.222,1.222,0,0,0,.909.3,4.4,4.4,0,0,0,.67-.056,4.463,4.463,0,0,0,.7-.168l.042.649a4.34,4.34,0,0,1-.72.18A4.672,4.672,0,0,1,643.931,427.98Zm-.059-3.828a.968.968,0,0,0-.787.32,1.711,1.711,0,0,0-.31,1h2.011a1.942,1.942,0,0,0-.226-1.017A.774.774,0,0,0,643.873,424.153Zm2.95.16h-.846v-.728h.855v-.232a3.377,3.377,0,0,1,.1-.917,1.218,1.218,0,0,1,.348-.584,1.507,1.507,0,0,1,.653-.324,5.087,5.087,0,0,1,1.031-.128l.042.641a3.547,3.547,0,0,0-.637.088.89.89,0,0,0-.394.2.717.717,0,0,0-.2.352,2.19,2.19,0,0,0-.059.557v.353h1.089v.728h-1.089v3.6h-.9Zm3.745-2.058q0,.5-.536.5a.567.567,0,0,1-.4-.12.627.627,0,0,1,0-.753.569.569,0,0,1,.4-.12q.535,0,.536.5Zm-.98,1.33h.888v4.324h-.888Zm1.935,0h.754l.059.488h.042q.293-.152.541-.261t.457-.176a2.8,2.8,0,0,1,.4-.1,2.2,2.2,0,0,1,.373-.032,1.142,1.142,0,0,1,.842.288,1.21,1.21,0,0,1,.289.889v3.228h-.888v-2.955a.831.831,0,0,0-.151-.564.608.608,0,0,0-.469-.164,2.12,2.12,0,0,0-.624.108,4.632,4.632,0,0,0-.725.3v3.276h-.9Zm6.619,4.4a2,2,0,0,1-1.533-.552,2.291,2.291,0,0,1-.519-1.626,2.508,2.508,0,0,1,.515-1.706,1.9,1.9,0,0,1,1.5-.585q1.7,0,1.7,1.93,0,.192-.013.332a2.311,2.311,0,0,1-.038.26h-2.773a1.5,1.5,0,0,0,.331.977,1.221,1.221,0,0,0,.909.3,4.389,4.389,0,0,0,.67-.056,4.44,4.44,0,0,0,.7-.168l.042.649a4.356,4.356,0,0,1-.721.18A4.662,4.662,0,0,1,658.141,427.98Zm-.059-3.828a.97.97,0,0,0-.788.32,1.715,1.715,0,0,0-.31,1H659a1.945,1.945,0,0,0-.227-1.017A.773.773,0,0,0,658.083,424.153Zm5.378,3.259a1.561,1.561,0,0,1-1.307.576,1.592,1.592,0,0,1-1.3-.532,2.571,2.571,0,0,1-.44-1.654,2.315,2.315,0,0,1,.586-1.722,2.209,2.209,0,0,1,1.617-.576q.226,0,.436.02c.139.013.282.03.428.052v-2.138h.888v6.471h-.787l-.075-.5Zm-1.056-.08a1.331,1.331,0,0,0,.414-.064,1.009,1.009,0,0,0,.344-.188.868.868,0,0,0,.231-.308,1.04,1.04,0,0,0,.084-.432v-2.122c-.14-.026-.282-.047-.428-.06s-.3-.02-.461-.02a1.177,1.177,0,0,0-.955.369,1.922,1.922,0,0,0-.31,1.233,2.219,2.219,0,0,0,.255,1.225A.933.933,0,0,0,662.406,427.332Z" transform="translate(-10.361 -104.286)"/><text class="b" transform="translate(666.947 290.192)"><tspan class="c" x="0" y="0">T</tspan><tspan y="0">M</tspan></text><path class="a" d="M636.338,390.045a10.848,10.848,0,0,1-5.527,1.7q-5.557,0-5.557-5.233v-11.12h2.59v11.232a3.472,3.472,0,0,0,.749,2.354,2.974,2.974,0,0,0,2.363.953,3.9,3.9,0,0,0,2.794-.831V375.392h2.589Z" transform="translate(-20.952 -78.917)"/><path class="a" d="M665.565,386.555A4.2,4.2,0,0,1,664,389.826a6.249,6.249,0,0,1-4.219,1.427,7.6,7.6,0,0,1-4.411-1.1l.77-1.724a5.355,5.355,0,0,0,3.371.951,3.379,3.379,0,0,0,2.312-.788,2.518,2.518,0,0,0,.9-1.977,2.553,2.553,0,0,0-.675-1.873,5.536,5.536,0,0,0-2.183-1.189q-4.047-1.4-4.046-4.49a4.039,4.039,0,0,1,1.422-3.122,5.358,5.358,0,0,1,3.724-1.279,7.44,7.44,0,0,1,4.028,1.1l-.736,1.576a4.907,4.907,0,0,0-2.876-.892,2.94,2.94,0,0,0-2.11.728,2.382,2.382,0,0,0-.767,1.8q0,1.873,2.877,2.883,4.187,1.488,4.187,4.7" transform="translate(-37.558 -78.514)"/><path class="a" d="M694.979,390.22a10.456,10.456,0,0,1-5.208,1.13q-5.964,0-5.964-4.727a4.747,4.747,0,0,1,2.56-4.4,16.54,16.54,0,0,1,6.2-1.606v-.981q0-3.181-3.462-3.181a8.317,8.317,0,0,0-3.782,1.011l-.611-1.546a9.658,9.658,0,0,1,4.8-1.19q5.469,0,5.47,5.2Zm-2.415-.922v-7.344a11.856,11.856,0,0,0-4.626,1.278,3.661,3.661,0,0,0-1.687,3.33q0,3.271,3.724,3.271a5.324,5.324,0,0,0,2.589-.535" transform="translate(-53.24 -78.551)"/><path class="a" d="M728.681,374.147a9.675,9.675,0,0,1-1.8,6.2,6.419,6.419,0,0,1-5.324,2.374,8.346,8.346,0,0,1-4.684-1.13V359.087H719.4v7.85a6.93,6.93,0,0,1,3.2-.714,5.3,5.3,0,0,1,4.407,2.167,9.173,9.173,0,0,1,1.673,5.758m-2.589.089a9.222,9.222,0,0,0-.956-4.539,3.481,3.481,0,0,0-3.186-1.928,5.084,5.084,0,0,0-2.549.623v12.252a4.965,4.965,0,0,0,2.2.386q4.489,0,4.49-6.794" transform="translate(-71.471 -69.926)"/><rect class="a" width="2.589" height="23.506" transform="translate(660.032 289.211)"/><path class="a" d="M594.938,374.077q-.569.063-1.169.1t-1.233.031q-.6,0-1.344-.048t-1.406-.111V382.8h-2.529V359.568a27.679,27.679,0,0,1,5.247-.506q4.8,0,7.018,1.818t2.212,5.769a8.148,8.148,0,0,1-1.091,4.473,6.148,6.148,0,0,1-3.4,2.45l4.963,9.23h-2.75Zm-2.15-1.992q3.382,0,4.868-1.264a6.615,6.615,0,0,0,.031-8.314q-1.454-1.263-4.773-1.264-.632,0-1.47.063t-1.66.19v10.368q.663.094,1.469.157t1.533.063" transform="translate(0 -69.912)"/></g></svg>