<svg xmlns="http://www.w3.org/2000/svg" viewBox="0 0 115.48 74.01"><defs><style>.cls-1{fill:#ffcd05;}.cls-2{fill:#3d3d3c;}</style></defs><title>Asset 10</title><g id="Layer_2" data-name="Layer 2"><g id="Layer_1-2" data-name="Layer 1"><path class="cls-1" d="M113.17,37a37,37,0,1,1-37-37,37,37,0,0,1,37,37h0"/><path class="cls-2" d="M61.37,60.17H2.06A1.41,1.41,0,0,0,.65,61.58v8.71A1.41,1.41,0,0,0,2.06,71.7l58.82.14h45A8.11,8.11,0,0,0,112,69.67c3-3.06,2.88-9,2.78-13.76,0-.67,0-1.32,0-1.94h-2.21V38.6a.95.95,0,0,0-1.89,0V54h-3.34V38.6a.95.95,0,0,0-1.89,0V54h-3.21V38.6a1,1,0,0,0-2,0V54H97V38.6a.95.95,0,0,0-1.89,0L95,54h-3.2V38.6a.95.95,0,0,0-1.89,0V54H86.54V38.6a.95.95,0,0,0-1.89,0V54H81.44V38.6a1,1,0,0,0-2,0V54h-3.2V38.6a.95.95,0,0,0-1.89,0L74.18,54H71V38.6a.95.95,0,0,0-1.89,0V54H65.74V38.6a.95.95,0,0,0-1.89,0V54H61.37Zm0,8.4H3.78V63.3l57.59.14ZM64.51,57.1l47.12.14v.5c0,.41,0,.84,0,1.3.06,2.79.13,6.27-1.78,8.22a5.33,5.33,0,0,1-4,1.45h0l-41.39-.14Z"/><path class="cls-2" d="M105.9,72.49h-45L1.41,72.35A1.41,1.41,0,0,1,0,70.94v-10a1.41,1.41,0,0,1,1.41-1.41H60.72v-6.2H63.2V38.6a1.6,1.6,0,0,1,3.19,0V53.32h2V38.6a1.6,1.6,0,0,1,3.2,0V53.32h1.9l.14-14.72a1.6,1.6,0,0,1,3.19,0V53.32h1.9V38.6a1.67,1.67,0,0,1,3.33,0V53.32H84V38.6a1.6,1.6,0,0,1,3.2,0V53.32h2V38.6a1.6,1.6,0,0,1,3.19,0V53.32h1.9l.14-14.72a1.6,1.6,0,0,1,3.19,0V53.32h1.9V38.6a1.67,1.67,0,0,1,3.33,0V53.32h1.91V38.6a1.6,1.6,0,0,1,3.19,0V53.32h2V38.6a1.6,1.6,0,0,1,3.19,0V53.32h2.2V54c0,.59,0,1.21,0,1.84.1,5,.22,11.06-3,14.31A8.75,8.75,0,0,1,105.9,72.49ZM1.3,69.64a1.42,1.42,0,0,0,1.41,1.42l58.17.13h45a7.53,7.53,0,0,0,5.66-2c2.8-2.86,2.68-8.64,2.59-13.29,0-.47,0-.89,0-1.3h-2.21v-16c0-.12,0-.29-.3-.29s-.29.17-.29.29v16h-4.64v-16c0-.12,0-.29-.3-.29s-.29.17-.29.29v16h-4.51v-16c0-.09,0-.29-.36-.29s-.37.2-.37.29v16h-4.5v-16c0-.12,0-.29-.3-.29s-.29.17-.29.29l-.15,16H91.12v-16c0-.12,0-.29-.3-.29s-.29.17-.29.29v16H85.89v-16c0-.12,0-.29-.3-.29s-.29.17-.29.29v16H80.79v-16c0-.09,0-.29-.36-.29s-.37.2-.37.29v16h-4.5v-16c0-.12,0-.29-.3-.29s-.29.17-.29.29l-.15,16H70.33v-16c0-.12,0-.29-.3-.29s-.29.17-.29.29v16H65.09v-16c0-.12,0-.29-.29-.29s-.3.17-.3.29v16H62v6.2H2.71A1.41,1.41,0,0,0,1.3,62.23Zm104.6-.28-42-.15V56.45l48.42.15v1.14c0,.39,0,.8,0,1.23.06,3,.13,6.6-2,8.74A6,6,0,0,1,105.9,69.36ZM65.16,67.92l40.74.14a4.7,4.7,0,0,0,3.51-1.26c1.71-1.75,1.64-5.08,1.59-7.75,0-.43,0-.81,0-1.16l-45.82-.14ZM62,69.22H3.13V62.65h.65L62,62.79ZM4.43,67.92H60.72V64.09L4.43,64Z"/></g></g></svg>