<svg xmlns="http://www.w3.org/2000/svg" width="72.679" height="97.841" viewBox="0 0 72.679 97.841"><defs><style>.a{fill:#f1e4b1;}.b{fill:#3c3c3b;}</style></defs><g transform="translate(0 0)"><path class="a" d="M635.651,328.342A36.339,36.339,0,1,1,599.312,292a36.339,36.339,0,0,1,36.338,36.338" transform="translate(-562.972 -292.004)"/><g transform="translate(28.376 17)"><path class="b" d="M157.369,33.176a13.543,13.543,0,0,0-10.036-12.162V14.875a4.763,4.763,0,0,0,3.45-4.572V4.755A4.761,4.761,0,0,0,146.027,0H130.039a4.761,4.761,0,0,0-4.755,4.755V10.3a4.763,4.763,0,0,0,3.45,4.572v6.139A13.547,13.547,0,0,0,118.7,33.175c-.019.288-2.7,40.409-2.7,40.533a7.141,7.141,0,0,0,7.133,7.133h29.8a7.141,7.141,0,0,0,7.133-7.133C160.066,73.585,157.389,33.465,157.369,33.176ZM130.039,4.755h15.988l0,5.548H130.039Zm22.894,72.33h-29.8c-1.289,0-3.342-2.031-3.377-3.312l2.685-40.283c.242-3.648,3.764-7.787,7.276-8.81l2.059-.6c1.014-.3.712-.226.712-1.282V15.059h11.089V22.8c0,1.057-.3.986.712,1.282l2.06.6c3.511,1.023,7.033,5.162,7.275,8.811l2.685,40.282C156.275,75.054,154.222,77.085,152.933,77.085Z" transform="translate(-116)"/><path class="b" d="M209.139,234.5a8.639,8.639,0,1,0-8.639-8.639A8.649,8.649,0,0,0,209.139,234.5Zm0-12.522a3.884,3.884,0,1,1-3.883,3.883A3.888,3.888,0,0,1,209.139,221.973Z" transform="translate(-187.106 -182.672)"/><path class="b" d="M204.748,342.592a2.377,2.377,0,0,0-3.157-1.157l-8.233,3.816-8.233-3.816a2.378,2.378,0,0,0-2,4.315l4.579,2.123-4.579,2.123a2.378,2.378,0,0,0,2,4.314l8.233-3.817,8.233,3.816a2.378,2.378,0,0,0,2-4.315l-4.579-2.123,4.579-2.123A2.377,2.377,0,0,0,204.748,342.592Z" transform="translate(-171.325 -287.013)"/></g></g></svg>